<?xml version="1.0" standalone="no"?>
<!DOCTYPE svg PUBLIC "-//W3C//DTD SVG 20010904//EN"
 "http://www.w3.org/TR/2001/REC-SVG-20010904/DTD/svg10.dtd">
<svg version="1.0" xmlns="http://www.w3.org/2000/svg"
 width="422.000000pt" height="422.000000pt" viewBox="0 0 422.000000 422.000000"
 preserveAspectRatio="xMidYMid meet">
<metadata>
Created by potrace 1.11, written by Peter Selinger 2001-2013
</metadata>
<g transform="translate(0.000000,422.000000) scale(0.100000,-0.100000)"
fill="#000000" stroke="none">
<path d="M1939 4216 c-2 -2 -33 -6 -69 -10 -55 -5 -105 -13 -246 -42 -110 -22
-326 -100 -458 -166 -340 -170 -650 -454 -853 -781 -139 -225 -242 -500 -283
-757 -7 -41 -14 -84 -17 -95 -9 -38 -11 -401 -3 -470 17 -143 23 -173 55 -300
42 -165 81 -269 154 -420 200 -409 547 -755 956 -956 230 -112 459 -180 705
-207 131 -14 459 -7 560 13 14 3 41 8 60 11 80 14 236 57 327 90 664 240 1172
807 1333 1489 28 117 34 151 50 285 9 69 6 401 -4 460 -3 19 -8 51 -11 70 -3
19 -8 49 -10 66 -7 55 -62 257 -95 344 -216 583 -681 1044 -1265 1255 -103 38
-301 88 -390 100 -27 4 -61 9 -75 12 -28 5 -416 14 -421 9z m418 -109 c11 -3
43 -9 70 -12 250 -36 576 -163 786 -306 34 -24 76 -52 94 -64 103 -71 287
-251 389 -381 129 -165 251 -393 319 -597 40 -120 44 -147 14 -97 -28 47 -113
146 -167 195 -132 120 -292 208 -457 251 -146 39 -377 40 -520 2 -341 -88
-623 -345 -749 -680 -39 -105 -65 -244 -70 -379 -3 -69 -8 -143 -11 -165 -59
-388 -320 -702 -680 -818 -261 -84 -551 -48 -786 96 -74 46 -225 182 -269 244
-8 11 -26 35 -39 53 -59 83 -128 254 -152 376 -24 126 -31 359 -16 515 31 301
157 639 336 900 113 165 286 348 436 463 131 100 258 174 445 260 117 55 353
117 535 142 86 12 443 13 492 2z m968 -1097 c50 -10 121 -30 159 -44 136 -52
296 -165 382 -269 21 -27 44 -54 49 -61 86 -103 173 -309 193 -456 14 -112 5
-293 -24 -455 -39 -220 -163 -519 -300 -725 -323 -485 -840 -807 -1421 -884
-127 -16 -430 -14 -543 4 -140 22 -356 80 -445 119 -11 4 -45 19 -75 32 -80
34 -245 125 -320 177 -148 102 -321 259 -415 377 -22 28 -42 52 -45 55 -28 26
-165 245 -202 320 -9 19 -22 46 -29 59 -6 14 18 -5 55 -41 274 -271 680 -373
1043 -264 366 110 647 408 742 786 24 94 30 136 36 285 7 142 18 214 50 312
88 268 279 487 527 602 77 37 202 74 273 83 81 11 228 5 310 -12z"/>
<path d="M1080 2099 c0 -262 -4 -448 -10 -464 -14 -36 -49 -47 -115 -33 -31 6
-57 9 -60 6 -2 -2 -6 -26 -7 -52 -3 -48 -3 -49 37 -63 50 -18 162 -23 195 -9
55 22 85 67 97 145 6 40 11 880 6 897 -3 7 -31 11 -74 11 l-69 0 0 -438z"/>
<path d="M2797 2531 c-3 -5 -1 -1016 2 -1033 0 -5 33 -8 71 -8 l70 0 0 228 1
227 25 29 c21 24 27 27 38 15 7 -8 93 -123 190 -256 l177 -243 86 0 c67 0 83
3 76 13 -6 6 -50 66 -99 132 -48 66 -91 122 -94 125 -24 22 -237 319 -231 322
7 3 49 52 186 217 11 13 30 35 42 48 11 13 36 42 55 65 18 23 48 57 65 77 18
20 33 39 33 42 0 4 -37 7 -83 7 -81 -1 -83 -1 -107 -33 -14 -18 -61 -77 -106
-132 -44 -54 -120 -147 -167 -207 -54 -67 -87 -101 -87 -90 -1 11 0 118 0 240
l1 221 -71 0 c-39 0 -72 -2 -73 -6z"/>
</g>
</svg>
